<?xml version="1.0" encoding="UTF-8"?>
<svg id="Layer_1" xmlns="http://www.w3.org/2000/svg" version="1.1" viewBox="0 0 30 30">
  <!-- Generator: Adobe Illustrator 30.1.0, SVG Export Plug-In . SVG Version: 2.1.1 Build 136)  -->
  <defs>
    <style>
      .st0 {
        fill: #fff;
      }
    </style>
  </defs>
  <path class="st0" d="M6.04,8.94V1.37s.18-.32.23-.37c.45-.53,1.46-.66,2.09-.24.1.07.45.49.45.54v7.53l.13.1h2.41l.13-.1V1.37s.18-.32.23-.37c.7-.82,2.29-.55,2.52.39-.21,3.63.35,7.52.02,11.12-.1,1.1-.77,2.27-1.74,3.09-.45.38-1.03.6-1.38.99v10.31c-.91,3.64-6.8,3.36-7.31-.27v-10.05c-.05-.21-.58-.38-.8-.54-1.46-1.03-2.27-2.26-2.41-3.8-.3-3.44.24-7.13,0-10.59C.75.18,3.3.11,3.42,1.65c.17,2.28-.21,4.76-.04,7.06l.14.23h2.54-.02ZM11.48,11.05H3.37v1.6c0,.56,1.05,1.67,1.66,1.99.3.15,1.1.32,1.25.44.17.13.34.71.35.91.19,3.43-.26,7.05-.06,10.51.2,1.08,1.44,1.28,1.78.14l.02-10.98c.15-.74.68-.64,1.34-.94.6-.28,1.75-1.33,1.75-1.85v-1.8h0l.02-.02ZM27.78.55c1.06-.04,1.49.23,1.71,1.03v26.53c-.15.72-.75,1-1.65,1.06-1.06.07-3.21.07-4.28,0-.6-.04-1.06-.18-1.34-.61-.31-.46-.12-.58-.12-.99,0-2.74,0-5.47-.02-8.21l-.13-.1c-1.62.09-3.32-.59-3.59-1.88V6.81c.65-3.53,4.82-6.11,9.42-6.26h0ZM26.72,2.7c-2.22.25-4.43,1.55-5.3,3.12-.07.13-.4.84-.4.91v10.55h2.63c.43,0,1.2.59,1.2.92v8.79h1.87V2.7Z"/>
</svg>